<svg xmlns="http://www.w3.org/2000/svg" xmlns:xlink="http://www.w3.org/1999/xlink">
<style>.st3{fill-rule:evenodd;clip-rule:evenodd}</style>
<g id="Group-58" transform="translate(520 18)">
  <g id="Group-57" transform="translate(0 .163)">
    <defs>
        <filter id="Adobe_OpacityMaskFilter" filterUnits="userSpaceOnUse" x="-520" y="-17.6" width="47.1" height="61.5">
            <feColorMatrix values="1 0 0 0 0 0 1 0 0 0 0 0 1 0 0 0 0 0 1 0"/>
        </filter>
    </defs>
    <mask maskUnits="userSpaceOnUse" x="-520" y="-17.6" width="47.1" height="61.5" id="mask-2_1_">
        <g filter="url(#Adobe_OpacityMaskFilter)">
            <path id="path-1_1_" fill-rule="evenodd" clip-rule="evenodd" fill="#fff" d="M-520-17.6h47.1v61.5H-520z"/>
        </g>
    </mask>

    <path id="Fill-55" d="M-475.1.7h2.2V-3h-2.2c-5.6 0-10.6 3-13.4 7.4-.4-1.4-.9-2.7-1.5-4 3.7-4.5 9.1-7 15-7h2.1v-3.7h-2.1c-6.5 0-12.5 2.6-16.9 7.2-.6-1-1.3-2-2.1-3 5.1-5.1 11.9-7.9 19.1-7.9h2v-3.7h-2c-8.1 0-15.8 3.1-21.6 8.8-5.7-5.6-13.5-8.8-21.6-8.8h-2v3.7h2c7.7 0 15 3.3 20.2 9 1.6 1.8 2.9 3.7 4 5.9C-492 4.7-491 8.8-491 13c0 3.1-.5 6.1-1.5 8.9-1.4-2.7-2.1-5.7-2.1-8.8V13c0-5.1-1.6-9.9-4.6-14-4.4-5.9-11.3-9.3-18.7-9.3h-2.1v3.7h2.1c5.9 0 11.3 2.5 15 7-.6 1.3-1.1 2.6-1.5 4-2.8-4.4-7.8-7.4-13.4-7.4h-2.2V.7h2.2c6.7 0 12.1 5.4 12.1 12.1v.5c0 6.7-5.4 12.1-12.1 12.1h-2.2v3.7h2.2c5.6 0 10.6-3 13.4-7.4.4 1.4.9 2.7 1.5 4-3.7 4.5-9.1 7-15 7h-2.1v3.7h2.1c6.5 0 12.5-2.6 16.9-7.2.6 1 1.3 2 2.1 2.9-5.1 5.1-11.9 7.9-19.1 7.9h-2v3.7h2c8.1 0 15.8-3.1 21.6-8.8 5.7 5.6 13.5 8.8 21.6 8.8h2V40h-2c-7.7 0-15-3.3-20.2-9-1.6-1.8-2.9-3.7-4-5.9-1.9-3.8-2.9-7.9-2.9-12.1 0-3.1.5-6.1 1.5-8.9 1.4 2.7 2.1 5.7 2.1 8.8v.2c0 5.1 1.6 9.9 4.6 14 4.5 5.9 11.3 9.4 18.7 9.4h2.1v-3.7h-2.1c-5.9 0-11.3-2.5-15-7 .6-1.3 1.1-2.6 1.5-4 2.8 4.4 7.8 7.4 13.4 7.4h2.2v-3.7h-2.2c-6.7 0-12.1-5.4-12.1-12.1v-.5c0-6.7 5.4-12.2 12.1-12.2" mask="url(#mask-2_1_)" fill-rule="evenodd" clip-rule="evenodd"/>
  </g>
</g>
</svg>
