<svg xmlns="http://www.w3.org/2000/svg" xmlns:xlink="http://www.w3.org/1999/xlink">
<style>.st3{fill-rule:evenodd;clip-rule:evenodd}</style><g id="Group-58" transform="translate(520 18)"><g id="Group-57" transform="translate(0 .163)"><defs><filter id="Adobe_OpacityMaskFilter" filterUnits="userSpaceOnUse" x="-520" y="-17.6" width="47.1" height="61.5"><feColorMatrix values="1 0 0 0 0 0 1 0 0 0 0 0 1 0 0 0 0 0 1 0"/></filter></defs><mask maskUnits="userSpaceOnUse" x="-520" y="-17.6" width="47.1" height="61.5" id="mask-2_1_"><g filter="url(#Adobe_OpacityMaskFilter)"><path id="path-1_1_" fill-rule="evenodd" clip-rule="evenodd" fill="#fff" d="M-520-17.6h47.1v61.5H-520z"/></g></mask><path id="Fill-55" d="M-475.1.7h2.2V-3h-2.2c-5.6 0-10.6 3-13.4 7.4-.4-1.4-.9-2.7-1.5-4 3.7-4.5 9.1-7 15-7h2.1v-3.7h-2.1c-6.5 0-12.5 2.6-16.9 7.2-.6-1-1.3-2-2.1-3 5.1-5.1 11.9-7.9 19.1-7.9h2v-3.7h-2c-8.1 0-15.8 3.1-21.6 8.8-5.7-5.6-13.5-8.8-21.6-8.8h-2v3.7h2c7.7 0 15 3.3 20.2 9 1.6 1.8 2.9 3.7 4 5.9C-492 4.7-491 8.8-491 13c0 3.1-.5 6.1-1.5 8.9-1.4-2.7-2.1-5.7-2.1-8.8V13c0-5.1-1.6-9.9-4.6-14-4.4-5.9-11.3-9.3-18.7-9.3h-2.1v3.7h2.1c5.9 0 11.3 2.5 15 7-.6 1.3-1.1 2.6-1.5 4-2.8-4.4-7.8-7.4-13.4-7.4h-2.2V.7h2.2c6.7 0 12.1 5.4 12.1 12.1v.5c0 6.7-5.4 12.1-12.1 12.1h-2.2v3.7h2.2c5.6 0 10.6-3 13.4-7.4.4 1.4.9 2.7 1.5 4-3.7 4.5-9.1 7-15 7h-2.1v3.7h2.1c6.5 0 12.5-2.6 16.9-7.2.6 1 1.3 2 2.1 2.9-5.1 5.1-11.9 7.9-19.1 7.9h-2v3.7h2c8.1 0 15.8-3.1 21.6-8.8 5.7 5.6 13.5 8.8 21.6 8.8h2V40h-2c-7.7 0-15-3.3-20.2-9-1.6-1.8-2.9-3.7-4-5.9-1.9-3.8-2.9-7.9-2.9-12.1 0-3.1.5-6.1 1.5-8.9 1.4 2.7 2.1 5.7 2.1 8.8v.2c0 5.1 1.6 9.9 4.6 14 4.5 5.9 11.3 9.4 18.7 9.4h2.1v-3.7h-2.1c-5.9 0-11.3-2.5-15-7 .6-1.3 1.1-2.6 1.5-4 2.8 4.4 7.8 7.4 13.4 7.4h2.2v-3.7h-2.2c-6.7 0-12.1-5.4-12.1-12.1v-.5c0-6.7 5.4-12.2 12.1-12.2" mask="url(#mask-2_1_)" fill-rule="evenodd" clip-rule="evenodd"/></g></g><path id="Fill-1" class="st3" d="M180.9 9.4v10.8h.1c.1-.1.2-.3.3-.4.7-1.2 1.7-2.1 3.1-2.5 1.5-.5 3.1.2 4 1.5.8 1.3 1.2 2.8 1.5 4.2.5 2.5.9 4.9 1.4 7.4.1.3.2.7.3 1 .2.7.7 1.1 1.5 1.3.1 0 .2.2.3.2-.1.1-.2.2-.3.2h-7.2c-.1-.3-.1-.5.2-.6.7-.2.9-.8.9-1.5 0-1-.1-2-.3-3-.4-2.1-.7-4.3-1.2-6.4-.1-.7-.4-1.3-.7-2-.5-1-1.5-1.2-2.3-.5-.7.5-1.1 1.3-1.5 2.1-.1.1-.1.3-.1.5v7.9c0 .5.1 1.1.2 1.6.2.6.6 1 1.1 1.3.2.1.3.2.2.5h-6.9c-.1 0-.3-.1-.4-.1.1-.1.2-.3.3-.4.9-.5 1.3-1.4 1.4-2.3V13.8c0-.6-.1-1.2-.3-1.8-.2-.6-.6-.9-1.1-1.2l-.3-.3c.1-.1.2-.2.3-.2.7-.2 1.5-.3 2.2-.5 1-.2 1.9-.4 2.9-.6.2.2.3.2.4.2"/><path id="Fill-3" class="st3" d="M84.1 33.1c.1-.2.1-.4.2-.4.9-.3 1.1-1 1.1-1.8s-.1-1.6-.2-2.3c-.4-2.3-.8-4.5-1.2-6.8-.1-.7-.4-1.4-.7-2-.5-1.1-1.6-1.3-2.4-.5-.6.6-1 1.3-1.4 2-.1.1-.1.3-.1.4v8c0 .7.2 1.4.4 2 .2.4.6.6 1 1 .1.1.2.2.3.5h-7.5c.1-.2.2-.4.3-.4.9-.5 1.4-1.3 1.4-2.3.1-.7 0-1.3 0-2v-6.8c0-.5-.1-1-.2-1.4-.1-.7-.6-1.2-1.3-1.5-.1-.1-.2-.2-.3-.4 0-.1.2-.2.3-.2 1.7-.4 3.4-.7 5.1-1h.3c-.2 1.3-.3 2.7-.5 4 0 0 .1 0 .1.1.1-.1.2-.3.3-.4.5-1 1.2-2 2.2-2.7 2.2-1.6 4.7-.9 5.8 1.6.7 1.4 1 3 1.2 4.5.4 2.2.8 4.3 1.2 6.5.2 1.1.7 2 1.9 2.1v.5h-7.3z"/><path id="Fill-5" class="st3" d="M227.7 33.1h-7.6v-.4c1-.3 1.3-1.1 1.2-1.9 0-.9-.2-1.8-.3-2.7-.4-2.3-.8-4.5-1.3-6.8-.1-.6-.3-1.1-.6-1.6-.5-.9-1.4-1.1-2.2-.5-.7.5-1.2 1.3-1.6 2.2V30c0 .8.1 1.5.6 2.1.2.2.5.4.8.6.1.1.2.3.4.5h-7.5c.1-.2.2-.4.3-.5.8-.4 1.2-1.1 1.4-2 .1-.4.1-.7.1-1.1v-8c0-.4 0-.8-.1-1.2-.2-.8-.6-1.4-1.3-1.7-.1 0-.2-.2-.2-.3 0-.1.2-.2.3-.3 1.7-.4 3.3-.7 5-1h.4c-.2 1.3-.4 2.7-.5 4 0 0 .1 0 .1.1.1-.2.3-.3.3-.5.5-1 1.2-1.9 2.1-2.6 2.2-1.6 4.7-1 5.8 1.5.7 1.5 1 3 1.3 4.6.4 2.2.8 4.3 1.2 6.5.2 1 .6 1.8 1.8 2.1 0-.1 0 .1.1.3"/><path id="Fill-7" class="st3" d="M153.4 27.6c0-2.2-.8-5.1-2-7.2-.5-.8-1-1.5-1.8-2.1-1.1-.8-2.4-.5-3.1.6-.6.9-.8 1.9-.9 2.9-.2 2.6.3 5 1.3 7.4.5 1.1 1.1 2.2 2.1 3 1.4 1.2 2.9.8 3.7-.9.5-1.1.7-2.3.7-3.7m4.2-2.2c0 4.6-3.7 8.2-8.2 8.2-4.5 0-8.1-3.7-8-8.3 0-4.5 3.6-8.2 8.1-8.2s8.1 3.7 8.1 8.3"/><path id="Fill-9" class="st3" d="M71.3 10.7c-.1.2-.1.4-.3.4-1 .3-1.3 1.2-1.5 2.1v16.6c0 .7 0 1.4.5 2 .2.3.5.5.9.7.3.1.4.2.3.5h-7.3c-.1 0-.3-.1-.4-.2.1-.1.2-.3.3-.4 1-.4 1.2-1.3 1.3-2.2V14c0-.6-.1-1.1-.2-1.7-.1-.7-.6-1.1-1.2-1.4-.1-.1-.2-.2-.3-.4.1-.1.2-.2.3-.2h7.2c.1.4.2.4.4.4"/><path id="Fill-11" class="st3" d="M107 24c1.5-.3 2.9-.6 4.3-.9.9-.2 1.3-.8 1.2-1.7-.1-1.2-.7-2.2-1.7-3-1.1-.8-2.4-.9-3.1.6-.8 1.6-.7 3.3-.7 5m10.4-1.5c-3.4.7-6.8 1.4-10.3 2.1.2 1.5.7 2.8 1.5 4 1.1 1.6 2.6 2.3 4.5 2.1 1.6-.1 2.9-.8 3.8-2.2 0-.1.1-.1.2-.2 0 .2 0 .5-.1.7-.8 2.2-2.3 3.8-4.6 4.4-4.7 1.2-8.4-2.3-9.2-6-.5-2.5-.2-4.9 1.4-7 2.1-2.8 5.4-3.9 8.7-2.6 2.1.8 3.4 2.4 4 4.5.1 0 .1.1.1.2"/><path id="Fill-13" class="st3" d="M197.8 24c1.5-.3 3-.6 4.4-1 .7-.2 1.1-.8 1-1.6-.1-1.3-.7-2.4-1.8-3.1-1.1-.7-2.3-.7-2.9.6-.3.7-.6 1.5-.7 2.3V24m10.3-1.5c-3.4.7-6.8 1.4-10.3 2.1.5 2.2 1.2 4.3 3.3 5.5 2.2 1.3 5.3.5 6.6-1.7 0-.1.1-.1.2-.3.2.7-.2 1.3-.5 1.8-2.2 4.1-7.6 4.6-10.8 1.6-3.1-2.9-3.7-7.8-1.2-11.3 2-2.9 5.5-4 8.7-2.7 2.1.8 3.4 2.4 4 4.6v.2c.1.1.1.2 0 .2"/><path id="Fill-15" class="st3" d="M138 9.4v20.1c0 .6.1 1.2.2 1.7.1.6.6 1.1 1.2 1.4.1.1.2.2.3.4-.1.1-.3.2-.4.2h-6.5c-.1 0-.3-.1-.4-.2.1-.1.2-.3.3-.4.8-.5 1.3-1.3 1.4-2.2V13.9c0-.6-.1-1.2-.3-1.8-.2-.5-.6-.9-1.1-1.1l-.3-.3c.1-.1.2-.2.4-.3l3.3-.6c.5-.2 1.1-.3 1.9-.4"/><path id="Fill-17" class="st3" d="M173.7 28.2c0 .3 0 .5-.1.8-.9 2.7-2.9 4.1-5.6 4.5-4.3.6-7.9-3.1-8.4-6.8-.3-2.6.3-5 2.1-7 2.3-2.5 6.1-3.3 9-1.8 1.1.6 2 1.3 2.5 2.5s.3 2.6-.6 3.4c-.6.6-1.6.6-2.3.2-.7-.5-1.1-1.4-.8-2.2.1-.3.2-.6.4-.9.5-1 .2-1.9-.7-2.5-1.7-1.3-4.3-.7-5.3 1.1-.7 1.2-.8 2.6-.8 4 .1 1.7.5 3.4 1.5 4.8 1.7 2.5 5 3.2 7.5 1.4.6-.3 1-.9 1.6-1.5"/><path id="Fill-19" class="st3" d="M102.2 31.7c-.1.2-.1.4-.3.5-1.5 1.2-3.1 1.6-4.9 1.2-1.3-.3-2-1.4-2.2-2.7-.1-.7-.2-1.4-.2-2.1v-9.7c0-.4-.1-.6-.5-.5h-1.5c-.1 0-.3-.1-.3-.2 0-.2-.1-.5.2-.6 2.4-.8 3.9-2.6 5.1-4.6.2-.3.3-.6.4-.9.1-.3.3-.3.6-.2v5.3c0 .4.1.5.5.5 1-.1 2.1-.3 3.1-.4.2 0 .3-.1.5-.1-.1.4-.1.8-.2 1.1 0 .1-.2.2-.4.2H99c-.3 0-.4.1-.4.4v10c0 .8.1 1.6.5 2.3.4.8 1.5 1.2 2.3.9.2-.3.4-.4.8-.4-.1 0-.1 0 0 0"/><path id="Fill-21" class="st3" d="M126.3 33.1h-7.5c.1-.2.1-.4.3-.4.9-.5 1.4-1.4 1.4-2.4v-9.5c0-1-.4-1.8-1.4-2.2-.1 0-.2-.2-.2-.3 0-.1.2-.2.3-.3 1.8-.4 3.5-.7 5.3-1.1h.2c-.2 1.2-.3 2.5-.5 3.7h.1c.2-.4.3-.7.5-1.1.7-1.2 1.5-2.1 2.9-2.5 1.3-.3 2.5.1 3.1 1.1.6 1.2.1 2.6-1.1 3-.8.3-1.7 0-2.1-.8-.1-.2-.3-.5-.4-.7-.3-.4-.8-.5-1.2-.2-.7.6-1.3 1.4-1.3 2.4v8.4c0 1 .4 1.9 1.4 2.3.1.2.1.4.2.6"/><path id="Fill-23" class="st3" d="M63.6 45.2c0-2.9 1.9-4.2 3.8-4.2 1.5 0 3.1.7 3.6 2.8l-1.3.2c-.3-1.2-1.2-1.8-2.3-1.8-1.5 0-2.5 1.1-2.5 3 0 1.8 1 2.9 2.5 2.9 1.1 0 2-.6 2.3-1.9l1.3.2c-.5 2.1-2.1 2.8-3.6 2.8-1.9.2-3.8-1-3.8-4"/><path id="Fill-25" class="st3" d="M74.5 41.2h5.3v1.2h-4v2.2h3.8v1.1h-3.8v2.4h4v1.2h-5.3z"/><path id="Fill-27" class="st3" d="M83.4 41.2h1.3l4.1 6.1v-6.1h1.3v8.1h-1.3l-4.1-6.2v6.2h-1.3z"/><path id="Fill-29" class="st3" d="M95.7 42.4h-2.2v-1.2h5.6v1.2H97v6.9h-1.3z"/><path id="Fill-31" class="st3" d="M102.5 41.2h5.3v1.2h-4v2.2h3.8v1.1h-3.8v2.4h4v1.2h-5.3z"/><path id="Fill-33" class="st3" d="M113.8 45.5c1.5 0 2.3-.3 2.3-1.6s-.8-1.6-2.3-1.6h-1.2v3.2h1.2zm2.3 3.8l-1.8-2.7h-1.6v2.7h-1.3v-8.1h2.4c2.5 0 3.7.7 3.7 2.7 0 1.3-.6 2.1-1.8 2.5l2 2.9h-1.6z"/><path id="Fill-35" class="st3" d="M126.3 41.2h5v1.2h-3.7v2.4h3.5v1.1h-3.5v3.4h-1.3z"/><path id="Fill-37" class="st3" d="M140.7 45.2c0-1.9-1-3-2.5-3-1.6 0-2.5 1.1-2.5 3s.9 3 2.5 3 2.5-1.1 2.5-3m-6.3 0c0-2.9 1.8-4.1 3.8-4.1 2 0 3.8 1.3 3.8 4.1 0 2.9-1.8 4.1-3.8 4.1-2 .1-3.8-1.1-3.8-4.1"/><path id="Fill-39" class="st3" d="M148.1 45.5c1.5 0 2.3-.3 2.3-1.6s-.8-1.6-2.3-1.6h-1.2v3.2h1.2zm2.2 3.8l-1.8-2.7h-1.6v2.7h-1.3v-8.1h2.4c2.5 0 3.7.7 3.7 2.7 0 1.3-.6 2.1-1.8 2.5l2 2.9h-1.6z"/><path id="Fill-41" class="st3" d="M162.3 42.4h-2.2v-1.2h5.7v1.2h-2.2v6.9h-1.3z"/><path id="Fill-43" class="st3" d="M169.1 41.2h1.3v3.4h3.9v-3.4h1.2v8.1h-1.2v-3.6h-3.9v3.6h-1.3z"/><path id="Fill-45" class="st3" d="M179.4 41.2h5.3v1.2h-4v2.2h3.8v1.1h-3.8v2.4h4v1.2h-5.3z"/><path id="Fill-47" class="st3" d="M198.2 46.6l-1.6-4-1.6 4h3.2zm.5 1.1h-4l-.6 1.6h-1.4l3.4-8.1h1.3l3.4 8.1h-1.4l-.7-1.6z"/><path id="Fill-49" class="st3" d="M206.1 45.5c1.5 0 2.3-.3 2.3-1.6s-.8-1.6-2.3-1.6h-1.2v3.2h1.2zm2.2 3.8l-1.8-2.7h-1.6v2.7h-1.3v-8.1h2.4c2.5 0 3.7.7 3.7 2.7 0 1.3-.6 2.1-1.8 2.5l2 2.9h-1.6z"/><path id="Fill-51" class="st3" d="M214.8 42.4h-2.2v-1.2h5.6v1.2h-2.1v6.9h-1.3z"/><path id="Fill-53" class="st3" d="M220.8 47.2l1.2-.2c.3.8 1.1 1.3 2.1 1.3 1.1 0 1.7-.4 1.7-1.2 0-1.9-4.7-.6-4.7-3.7 0-1.3 1.1-2.3 2.8-2.3 1.6 0 2.7.7 3.2 2.1l-1.2.2c-.3-.8-1-1.2-1.9-1.2-1 0-1.6.4-1.6 1.1 0 2 4.8.5 4.8 3.7 0 1.4-1.2 2.3-3 2.3-1.8.1-3-.7-3.4-2.1"/>
</svg>
